<svg width="14" height="14" viewBox="0 0 14 14" fill="none" xmlns="http://www.w3.org/2000/svg">
<path fill-rule="evenodd" clip-rule="evenodd" d="M1.74403 2.84223C1.92856 2.53671 2.94522 1.42545 3.67072 1.459C3.88759 1.47697 4.0793 1.60816 4.23506 1.76032C4.59272 2.10958 5.61657 3.43051 5.67468 3.70848C5.81607 4.39021 5.0037 4.78319 5.25232 5.47032C5.88616 7.02129 6.97831 8.11338 8.52996 8.74659C9.21652 8.9952 9.60952 8.18287 10.2913 8.32485C10.5687 8.38296 11.8903 9.40676 12.2395 9.7644C12.3911 9.91956 12.5229 10.1119 12.5409 10.3287C12.5678 11.0925 11.3876 12.1235 11.1576 12.2553C10.6148 12.6435 9.90667 12.6369 9.04338 12.2355C6.63443 11.2333 2.78466 7.45621 1.7638 4.95632C1.3732 4.09787 1.34624 3.38498 1.74403 2.84223Z" stroke="#066dca" stroke-linecap="round" stroke-linejoin="round"/>
</svg>
