<svg width="216" height="37" viewBox="0 0 216 37" fill="none" xmlns="http://www.w3.org/2000/svg">
<path d="M15.0439 12.8018C15.0439 13.8662 14.8779 14.8086 14.5459 15.6289C14.2139 16.4492 13.7305 17.1426 13.0957 17.709C12.4609 18.2656 11.6797 18.6904 10.752 18.9834C9.83398 19.2764 8.75 19.4229 7.5 19.4229H5.91797V25.4727C5.91797 25.5703 5.88379 25.6582 5.81543 25.7363C5.75684 25.8145 5.6543 25.8779 5.50781 25.9268C5.36133 25.9756 5.16602 26.0146 4.92188 26.0439C4.67773 26.0732 4.36523 26.0879 3.98438 26.0879C3.61328 26.0879 3.30078 26.0732 3.04688 26.0439C2.80273 26.0146 2.60742 25.9756 2.46094 25.9268C2.31445 25.8779 2.21191 25.8145 2.15332 25.7363C2.09473 25.6582 2.06543 25.5703 2.06543 25.4727V8.42188C2.06543 7.96289 2.18262 7.62109 2.41699 7.39648C2.66113 7.16211 2.97852 7.04492 3.36914 7.04492H7.83691C8.28613 7.04492 8.71094 7.06445 9.11133 7.10352C9.52148 7.13281 10.0098 7.20605 10.5762 7.32324C11.1426 7.43066 11.7139 7.63574 12.29 7.93848C12.876 8.24121 13.374 8.62695 13.7842 9.0957C14.1943 9.55469 14.5068 10.0967 14.7217 10.7217C14.9365 11.3369 15.0439 12.0303 15.0439 12.8018ZM11.0156 13.0801C11.0156 12.416 10.8984 11.8691 10.6641 11.4395C10.4297 11.0098 10.1416 10.6924 9.7998 10.4873C9.45801 10.2822 9.09668 10.1553 8.71582 10.1064C8.34473 10.0479 7.95898 10.0186 7.55859 10.0186H5.91797V16.4492H7.64648C8.26172 16.4492 8.77441 16.3662 9.18457 16.2002C9.60449 16.0342 9.94629 15.8047 10.21 15.5117C10.4736 15.209 10.6738 14.8525 10.8105 14.4424C10.9473 14.0225 11.0156 13.5684 11.0156 13.0801ZM29.3848 18.5879C29.3848 19.0371 29.2822 19.3691 29.0771 19.584C28.8818 19.7988 28.6084 19.9062 28.2568 19.9062H20.3027C20.3027 20.4629 20.3662 20.9707 20.4932 21.4297C20.6299 21.8789 20.8398 22.2646 21.123 22.5869C21.416 22.8994 21.7871 23.1387 22.2363 23.3047C22.6953 23.4707 23.2422 23.5537 23.877 23.5537C24.5215 23.5537 25.0879 23.5098 25.5762 23.4219C26.0645 23.3242 26.4844 23.2217 26.8359 23.1143C27.1973 22.9971 27.4951 22.8945 27.7295 22.8066C27.9639 22.709 28.1543 22.6602 28.3008 22.6602C28.3887 22.6602 28.4619 22.6797 28.5205 22.7188C28.5791 22.748 28.6279 22.8066 28.667 22.8945C28.7061 22.9824 28.7305 23.1094 28.7402 23.2754C28.7598 23.4316 28.7695 23.6318 28.7695 23.876C28.7695 24.0908 28.7646 24.2764 28.7549 24.4326C28.7451 24.5791 28.7305 24.7061 28.7109 24.8135C28.6914 24.9209 28.6621 25.0137 28.623 25.0918C28.584 25.1602 28.5303 25.2285 28.4619 25.2969C28.4033 25.3652 28.2324 25.458 27.9492 25.5752C27.666 25.6924 27.3047 25.8096 26.8652 25.9268C26.4258 26.0342 25.9229 26.127 25.3564 26.2051C24.79 26.293 24.1846 26.3369 23.54 26.3369C22.3779 26.3369 21.3574 26.1904 20.4785 25.8975C19.6094 25.6045 18.8818 25.1602 18.2959 24.5645C17.71 23.9688 17.2705 23.2168 16.9775 22.3086C16.6943 21.4004 16.5527 20.3359 16.5527 19.1152C16.5527 17.9531 16.7041 16.9082 17.0068 15.9805C17.3096 15.043 17.749 14.252 18.3252 13.6074C18.9014 12.9531 19.5996 12.4551 20.4199 12.1133C21.25 11.7715 22.1826 11.6006 23.2178 11.6006C24.3115 11.6006 25.2441 11.7617 26.0156 12.084C26.7969 12.4062 27.4365 12.8555 27.9346 13.4316C28.4326 13.998 28.7988 14.6719 29.0332 15.4531C29.2676 16.2344 29.3848 17.084 29.3848 18.002V18.5879ZM25.8105 17.5332C25.8398 16.498 25.6299 15.6875 25.1807 15.1016C24.7412 14.5059 24.0576 14.208 23.1299 14.208C22.6611 14.208 22.251 14.2959 21.8994 14.4717C21.5576 14.6475 21.2695 14.8867 21.0352 15.1895C20.8105 15.4824 20.6348 15.834 20.5078 16.2441C20.3906 16.6445 20.3223 17.0742 20.3027 17.5332H25.8105ZM40.8252 13.6514C40.8252 14.0029 40.8154 14.291 40.7959 14.5156C40.7764 14.7402 40.7471 14.916 40.708 15.043C40.6689 15.1699 40.6152 15.2578 40.5469 15.3066C40.4883 15.3555 40.4102 15.3799 40.3125 15.3799C40.2344 15.3799 40.1465 15.3652 40.0488 15.3359C39.9512 15.2969 39.8389 15.2578 39.7119 15.2188C39.5947 15.1797 39.4629 15.1455 39.3164 15.1162C39.1699 15.0771 39.0088 15.0576 38.833 15.0576C38.6279 15.0576 38.4229 15.1016 38.2178 15.1895C38.0127 15.2676 37.7979 15.3945 37.5732 15.5703C37.3584 15.7461 37.1289 15.9805 36.8848 16.2734C36.6504 16.5664 36.3965 16.9277 36.123 17.3574V25.502C36.123 25.5996 36.0938 25.6875 36.0352 25.7656C35.9766 25.834 35.874 25.8926 35.7275 25.9414C35.5908 25.9902 35.4053 26.0244 35.1709 26.0439C34.9365 26.0732 34.6387 26.0879 34.2773 26.0879C33.916 26.0879 33.6182 26.0732 33.3838 26.0439C33.1494 26.0244 32.959 25.9902 32.8125 25.9414C32.6758 25.8926 32.5781 25.834 32.5195 25.7656C32.4609 25.6875 32.4316 25.5996 32.4316 25.502V12.4355C32.4316 12.3379 32.4561 12.2549 32.5049 12.1865C32.5537 12.1084 32.6416 12.0449 32.7686 11.9961C32.8955 11.9473 33.0566 11.9131 33.252 11.8936C33.457 11.8643 33.7109 11.8496 34.0137 11.8496C34.3262 11.8496 34.585 11.8643 34.79 11.8936C34.9951 11.9131 35.1514 11.9473 35.2588 11.9961C35.376 12.0449 35.459 12.1084 35.5078 12.1865C35.5566 12.2549 35.5811 12.3379 35.5811 12.4355V14.0615C35.9229 13.5732 36.2451 13.1729 36.5479 12.8604C36.8506 12.5381 37.1387 12.2842 37.4121 12.0986C37.6855 11.9131 37.959 11.7861 38.2324 11.7178C38.5059 11.6396 38.7793 11.6006 39.0527 11.6006C39.1797 11.6006 39.3164 11.6104 39.4629 11.6299C39.6094 11.6396 39.7607 11.6641 39.917 11.7031C40.0732 11.7324 40.21 11.7715 40.3271 11.8203C40.4443 11.8594 40.5273 11.9033 40.5762 11.9521C40.6348 12.001 40.6738 12.0547 40.6934 12.1133C40.7227 12.1719 40.7471 12.2549 40.7666 12.3623C40.7861 12.46 40.8008 12.6113 40.8105 12.8164C40.8203 13.0215 40.8252 13.2998 40.8252 13.6514ZM51.9141 21.8105C51.9141 22.5527 51.7725 23.207 51.4893 23.7734C51.2158 24.3398 50.8252 24.8135 50.3174 25.1943C49.8096 25.5752 49.209 25.8584 48.5156 26.0439C47.8223 26.2393 47.0703 26.3369 46.2598 26.3369C45.7715 26.3369 45.3027 26.2979 44.8535 26.2197C44.4141 26.1514 44.0186 26.0635 43.667 25.9561C43.3154 25.8389 43.0225 25.7217 42.7881 25.6045C42.5537 25.4873 42.3828 25.3799 42.2754 25.2822C42.168 25.1748 42.085 25.0137 42.0264 24.7988C41.9678 24.5742 41.9385 24.2471 41.9385 23.8174C41.9385 23.5342 41.9482 23.3096 41.9678 23.1436C41.9873 22.9678 42.0166 22.8311 42.0557 22.7334C42.0947 22.626 42.1436 22.5576 42.2021 22.5283C42.2607 22.4893 42.334 22.4697 42.4219 22.4697C42.5293 22.4697 42.6855 22.5332 42.8906 22.6602C43.1055 22.7773 43.3691 22.9092 43.6816 23.0557C43.9941 23.2021 44.3555 23.3389 44.7656 23.4658C45.1855 23.5928 45.6592 23.6562 46.1865 23.6562C46.5186 23.6562 46.8115 23.6221 47.0654 23.5537C47.3291 23.4854 47.5537 23.3877 47.7393 23.2607C47.9346 23.1338 48.0811 22.9727 48.1787 22.7773C48.2764 22.582 48.3252 22.3574 48.3252 22.1035C48.3252 21.8105 48.2324 21.5615 48.0469 21.3564C47.8711 21.1416 47.6318 20.9561 47.3291 20.7998C47.0361 20.6436 46.6992 20.4971 46.3184 20.3604C45.9473 20.2236 45.5615 20.0723 45.1611 19.9062C44.7705 19.7402 44.3848 19.5498 44.0039 19.335C43.6328 19.1201 43.2959 18.8564 42.9932 18.5439C42.7002 18.2314 42.4609 17.8555 42.2754 17.416C42.0996 16.9766 42.0117 16.4492 42.0117 15.834C42.0117 15.209 42.1338 14.6377 42.3779 14.1201C42.6221 13.5928 42.9736 13.1436 43.4326 12.7725C43.8916 12.4014 44.4482 12.1133 45.1025 11.9082C45.7666 11.7031 46.5088 11.6006 47.3291 11.6006C47.7393 11.6006 48.1348 11.6299 48.5156 11.6885C48.9062 11.7471 49.2578 11.8203 49.5703 11.9082C49.8828 11.9961 50.1465 12.0938 50.3613 12.2012C50.5762 12.2988 50.7275 12.3867 50.8154 12.4648C50.9131 12.5332 50.9814 12.6064 51.0205 12.6846C51.0596 12.7529 51.0889 12.8408 51.1084 12.9482C51.1279 13.0459 51.1426 13.1729 51.1523 13.3291C51.1719 13.4756 51.1816 13.6611 51.1816 13.8857C51.1816 14.1494 51.1719 14.3643 51.1523 14.5303C51.1426 14.6963 51.1182 14.8281 51.0791 14.9258C51.0498 15.0234 51.0059 15.0918 50.9473 15.1309C50.8887 15.1602 50.8203 15.1748 50.7422 15.1748C50.6543 15.1748 50.5176 15.126 50.332 15.0283C50.1465 14.9209 49.9121 14.8086 49.6289 14.6914C49.3555 14.5742 49.0332 14.4668 48.6621 14.3691C48.3008 14.2617 47.8857 14.208 47.417 14.208C47.085 14.208 46.7969 14.2422 46.5527 14.3105C46.3086 14.3789 46.1084 14.4766 45.9521 14.6035C45.7959 14.7305 45.6787 14.8818 45.6006 15.0576C45.5225 15.2236 45.4834 15.4043 45.4834 15.5996C45.4834 15.9023 45.5762 16.1562 45.7617 16.3613C45.9473 16.5664 46.1914 16.7471 46.4941 16.9033C46.7969 17.0596 47.1387 17.2061 47.5195 17.3428C47.9102 17.4795 48.3008 17.6309 48.6914 17.7969C49.0918 17.9531 49.4824 18.1387 49.8633 18.3535C50.2539 18.5684 50.6006 18.832 50.9033 19.1445C51.2061 19.457 51.4502 19.833 51.6357 20.2725C51.8213 20.7021 51.9141 21.2148 51.9141 21.8105ZM67.9102 18.8369C67.9102 19.9502 67.7637 20.9658 67.4707 21.8838C67.1777 22.8018 66.7334 23.5928 66.1377 24.2568C65.542 24.9209 64.7949 25.4336 63.8965 25.7949C62.998 26.1562 61.9482 26.3369 60.7471 26.3369C59.585 26.3369 58.5742 26.1758 57.7148 25.8535C56.8555 25.5312 56.1426 25.0625 55.5762 24.4473C55.0098 23.832 54.5898 23.0752 54.3164 22.1768C54.043 21.2783 53.9062 20.2529 53.9062 19.1006C53.9062 17.9873 54.0527 16.9717 54.3457 16.0537C54.6484 15.126 55.0977 14.335 55.6934 13.6807C56.2891 13.0166 57.0312 12.5039 57.9199 12.1426C58.8184 11.7812 59.8682 11.6006 61.0693 11.6006C62.2412 11.6006 63.2568 11.7617 64.1162 12.084C64.9756 12.3965 65.6836 12.8604 66.2402 13.4756C66.8066 14.0908 67.2266 14.8477 67.5 15.7461C67.7734 16.6445 67.9102 17.6748 67.9102 18.8369ZM64.1162 18.9834C64.1162 18.3389 64.0625 17.748 63.9551 17.2109C63.8574 16.6641 63.6865 16.1904 63.4424 15.79C63.1982 15.3896 62.8711 15.0771 62.4609 14.8525C62.0605 14.6279 61.5527 14.5156 60.9375 14.5156C60.3906 14.5156 59.9121 14.6182 59.502 14.8232C59.0918 15.0186 58.7549 15.3115 58.4912 15.7021C58.2275 16.083 58.0273 16.5469 57.8906 17.0938C57.7637 17.6309 57.7002 18.2461 57.7002 18.9395C57.7002 19.584 57.7539 20.1797 57.8613 20.7266C57.9688 21.2637 58.1396 21.7324 58.374 22.1328C58.6182 22.5332 58.9453 22.8457 59.3555 23.0703C59.7656 23.2852 60.2734 23.3926 60.8789 23.3926C61.4355 23.3926 61.9189 23.2949 62.3291 23.0996C62.7393 22.8945 63.0762 22.6016 63.3398 22.2207C63.6035 21.8398 63.7988 21.3809 63.9258 20.8438C64.0527 20.2969 64.1162 19.6768 64.1162 18.9834ZM83.3203 25.502C83.3203 25.5996 83.291 25.6875 83.2324 25.7656C83.1738 25.834 83.0762 25.8926 82.9395 25.9414C82.8027 25.9902 82.6123 26.0244 82.3682 26.0439C82.1338 26.0732 81.8408 26.0879 81.4893 26.0879C81.1279 26.0879 80.8252 26.0732 80.5811 26.0439C80.3467 26.0244 80.1611 25.9902 80.0244 25.9414C79.8877 25.8926 79.79 25.834 79.7314 25.7656C79.6729 25.6875 79.6436 25.5996 79.6436 25.502V18.0459C79.6436 17.4111 79.5947 16.9131 79.4971 16.5518C79.4092 16.1904 79.2773 15.8828 79.1016 15.6289C78.9258 15.3652 78.6963 15.165 78.4131 15.0283C78.1396 14.8818 77.8174 14.8086 77.4463 14.8086C76.9775 14.8086 76.5039 14.9795 76.0254 15.3213C75.5469 15.6631 75.0488 16.1611 74.5312 16.8154V25.502C74.5312 25.5996 74.502 25.6875 74.4434 25.7656C74.3848 25.834 74.2822 25.8926 74.1357 25.9414C73.999 25.9902 73.8135 26.0244 73.5791 26.0439C73.3447 26.0732 73.0469 26.0879 72.6855 26.0879C72.3242 26.0879 72.0264 26.0732 71.792 26.0439C71.5576 26.0244 71.3672 25.9902 71.2207 25.9414C71.084 25.8926 70.9863 25.834 70.9277 25.7656C70.8691 25.6875 70.8398 25.5996 70.8398 25.502V12.4355C70.8398 12.3379 70.8643 12.2549 70.9131 12.1865C70.9619 12.1084 71.0498 12.0449 71.1768 11.9961C71.3037 11.9473 71.4648 11.9131 71.6602 11.8936C71.8652 11.8643 72.1191 11.8496 72.4219 11.8496C72.7344 11.8496 72.9932 11.8643 73.1982 11.8936C73.4033 11.9131 73.5596 11.9473 73.667 11.9961C73.7842 12.0449 73.8672 12.1084 73.916 12.1865C73.9648 12.2549 73.9893 12.3379 73.9893 12.4355V13.9443C74.7119 13.1631 75.4443 12.5771 76.1865 12.1865C76.9385 11.7959 77.7197 11.6006 78.5303 11.6006C79.4189 11.6006 80.166 11.7471 80.7715 12.04C81.3867 12.333 81.8799 12.7334 82.251 13.2412C82.6318 13.7393 82.9053 14.3252 83.0713 14.999C83.2373 15.6729 83.3203 16.4834 83.3203 17.4307V25.502ZM98.0859 25.5459C98.0859 25.6826 98.0371 25.79 97.9395 25.8682C97.8418 25.9463 97.6855 26 97.4707 26.0293C97.2656 26.0684 96.958 26.0879 96.5479 26.0879C96.1084 26.0879 95.7861 26.0684 95.5811 26.0293C95.3857 26 95.2441 25.9463 95.1562 25.8682C95.0781 25.79 95.0391 25.6826 95.0391 25.5459V24.5059C94.502 25.082 93.8867 25.5312 93.1934 25.8535C92.5098 26.1758 91.748 26.3369 90.9082 26.3369C90.2148 26.3369 89.5752 26.2441 88.9893 26.0586C88.4131 25.8828 87.9102 25.6191 87.4805 25.2676C87.0605 24.9062 86.7334 24.4619 86.499 23.9346C86.2646 23.4072 86.1475 22.792 86.1475 22.0889C86.1475 21.3271 86.2939 20.668 86.5869 20.1113C86.8896 19.5449 87.334 19.0811 87.9199 18.7197C88.5156 18.3486 89.2529 18.0752 90.1318 17.8994C91.0107 17.7236 92.0312 17.6357 93.1934 17.6357H94.4678V16.8447C94.4678 16.4346 94.4238 16.0781 94.3359 15.7754C94.2578 15.4629 94.1211 15.2041 93.9258 14.999C93.7402 14.7939 93.4863 14.6426 93.1641 14.5449C92.8516 14.4473 92.4609 14.3984 91.9922 14.3984C91.377 14.3984 90.8252 14.4668 90.3369 14.6035C89.8584 14.7402 89.4336 14.8916 89.0625 15.0576C88.6914 15.2236 88.3789 15.375 88.125 15.5117C87.8809 15.6484 87.6807 15.7168 87.5244 15.7168C87.417 15.7168 87.3193 15.6826 87.2314 15.6143C87.1533 15.5459 87.085 15.4482 87.0264 15.3213C86.9775 15.1943 86.9385 15.0381 86.9092 14.8525C86.8799 14.667 86.8652 14.4619 86.8652 14.2373C86.8652 13.9346 86.8896 13.6953 86.9385 13.5195C86.9873 13.3438 87.0801 13.1875 87.2168 13.0508C87.3535 12.9043 87.5928 12.748 87.9346 12.582C88.2764 12.4062 88.6768 12.2451 89.1357 12.0986C89.5947 11.9521 90.0928 11.835 90.6299 11.7471C91.1768 11.6494 91.7383 11.6006 92.3145 11.6006C93.3398 11.6006 94.2139 11.7031 94.9365 11.9082C95.6689 12.1035 96.2695 12.4111 96.7383 12.8311C97.207 13.2412 97.5488 13.7734 97.7637 14.4277C97.9785 15.082 98.0859 15.8584 98.0859 16.7568V25.5459ZM94.4678 19.9502H93.0615C92.4658 19.9502 91.958 19.9941 91.5381 20.082C91.1182 20.1699 90.7764 20.3018 90.5127 20.4775C90.249 20.6533 90.0537 20.8682 89.9268 21.1221C89.8096 21.3662 89.751 21.6494 89.751 21.9717C89.751 22.5186 89.9219 22.9482 90.2637 23.2607C90.6152 23.5732 91.0986 23.7295 91.7139 23.7295C92.2314 23.7295 92.7051 23.5977 93.1348 23.334C93.5742 23.0703 94.0186 22.6846 94.4678 22.1768V19.9502ZM135.366 12.8018C135.366 13.8662 135.2 14.8086 134.868 15.6289C134.536 16.4492 134.053 17.1426 133.418 17.709C132.783 18.2656 132.002 18.6904 131.074 18.9834C130.156 19.2764 129.072 19.4229 127.822 19.4229H126.24V25.4727C126.24 25.5703 126.206 25.6582 126.138 25.7363C126.079 25.8145 125.977 25.8779 125.83 25.9268C125.684 25.9756 125.488 26.0146 125.244 26.0439C125 26.0732 124.688 26.0879 124.307 26.0879C123.936 26.0879 123.623 26.0732 123.369 26.0439C123.125 26.0146 122.93 25.9756 122.783 25.9268C122.637 25.8779 122.534 25.8145 122.476 25.7363C122.417 25.6582 122.388 25.5703 122.388 25.4727V8.42188C122.388 7.96289 122.505 7.62109 122.739 7.39648C122.983 7.16211 123.301 7.04492 123.691 7.04492H128.159C128.608 7.04492 129.033 7.06445 129.434 7.10352C129.844 7.13281 130.332 7.20605 130.898 7.32324C131.465 7.43066 132.036 7.63574 132.612 7.93848C133.198 8.24121 133.696 8.62695 134.106 9.0957C134.517 9.55469 134.829 10.0967 135.044 10.7217C135.259 11.3369 135.366 12.0303 135.366 12.8018ZM131.338 13.0801C131.338 12.416 131.221 11.8691 130.986 11.4395C130.752 11.0098 130.464 10.6924 130.122 10.4873C129.78 10.2822 129.419 10.1553 129.038 10.1064C128.667 10.0479 128.281 10.0186 127.881 10.0186H126.24V16.4492H127.969C128.584 16.4492 129.097 16.3662 129.507 16.2002C129.927 16.0342 130.269 15.8047 130.532 15.5117C130.796 15.209 130.996 14.8525 131.133 14.4424C131.27 14.0225 131.338 13.5684 131.338 13.0801ZM148.682 25.5459C148.682 25.6826 148.633 25.79 148.535 25.8682C148.438 25.9463 148.281 26 148.066 26.0293C147.861 26.0684 147.554 26.0879 147.144 26.0879C146.704 26.0879 146.382 26.0684 146.177 26.0293C145.981 26 145.84 25.9463 145.752 25.8682C145.674 25.79 145.635 25.6826 145.635 25.5459V24.5059C145.098 25.082 144.482 25.5312 143.789 25.8535C143.105 26.1758 142.344 26.3369 141.504 26.3369C140.811 26.3369 140.171 26.2441 139.585 26.0586C139.009 25.8828 138.506 25.6191 138.076 25.2676C137.656 24.9062 137.329 24.4619 137.095 23.9346C136.86 23.4072 136.743 22.792 136.743 22.0889C136.743 21.3271 136.89 20.668 137.183 20.1113C137.485 19.5449 137.93 19.0811 138.516 18.7197C139.111 18.3486 139.849 18.0752 140.728 17.8994C141.606 17.7236 142.627 17.6357 143.789 17.6357H145.063V16.8447C145.063 16.4346 145.02 16.0781 144.932 15.7754C144.854 15.4629 144.717 15.2041 144.521 14.999C144.336 14.7939 144.082 14.6426 143.76 14.5449C143.447 14.4473 143.057 14.3984 142.588 14.3984C141.973 14.3984 141.421 14.4668 140.933 14.6035C140.454 14.7402 140.029 14.8916 139.658 15.0576C139.287 15.2236 138.975 15.375 138.721 15.5117C138.477 15.6484 138.276 15.7168 138.12 15.7168C138.013 15.7168 137.915 15.6826 137.827 15.6143C137.749 15.5459 137.681 15.4482 137.622 15.3213C137.573 15.1943 137.534 15.0381 137.505 14.8525C137.476 14.667 137.461 14.4619 137.461 14.2373C137.461 13.9346 137.485 13.6953 137.534 13.5195C137.583 13.3438 137.676 13.1875 137.812 13.0508C137.949 12.9043 138.188 12.748 138.53 12.582C138.872 12.4062 139.272 12.2451 139.731 12.0986C140.19 11.9521 140.688 11.835 141.226 11.7471C141.772 11.6494 142.334 11.6006 142.91 11.6006C143.936 11.6006 144.81 11.7031 145.532 11.9082C146.265 12.1035 146.865 12.4111 147.334 12.8311C147.803 13.2412 148.145 13.7734 148.359 14.4277C148.574 15.082 148.682 15.8584 148.682 16.7568V25.5459ZM145.063 19.9502H143.657C143.062 19.9502 142.554 19.9941 142.134 20.082C141.714 20.1699 141.372 20.3018 141.108 20.4775C140.845 20.6533 140.649 20.8682 140.522 21.1221C140.405 21.3662 140.347 21.6494 140.347 21.9717C140.347 22.5186 140.518 22.9482 140.859 23.2607C141.211 23.5732 141.694 23.7295 142.31 23.7295C142.827 23.7295 143.301 23.5977 143.73 23.334C144.17 23.0703 144.614 22.6846 145.063 22.1768V19.9502ZM159.814 24.2129C159.814 24.6426 159.785 24.9746 159.727 25.209C159.678 25.4336 159.609 25.5947 159.521 25.6924C159.434 25.7803 159.302 25.8633 159.126 25.9414C158.96 26.0098 158.76 26.0684 158.525 26.1172C158.301 26.1758 158.052 26.2197 157.778 26.249C157.515 26.2783 157.246 26.293 156.973 26.293C156.24 26.293 155.605 26.2002 155.068 26.0146C154.531 25.8291 154.087 25.5459 153.735 25.165C153.384 24.7744 153.125 24.2861 152.959 23.7002C152.793 23.1143 152.71 22.4209 152.71 21.6201V14.9258H151.143C150.957 14.9258 150.815 14.8135 150.718 14.5889C150.62 14.3545 150.571 13.9688 150.571 13.4316C150.571 13.1484 150.581 12.9092 150.601 12.7139C150.63 12.5186 150.669 12.3672 150.718 12.2598C150.767 12.1426 150.825 12.0596 150.894 12.0107C150.972 11.9619 151.06 11.9375 151.157 11.9375H152.71V9.02246C152.71 8.9248 152.734 8.83691 152.783 8.75879C152.842 8.68066 152.939 8.61719 153.076 8.56836C153.223 8.50977 153.413 8.4707 153.647 8.45117C153.892 8.42188 154.189 8.40723 154.541 8.40723C154.902 8.40723 155.2 8.42188 155.435 8.45117C155.679 8.4707 155.869 8.50977 156.006 8.56836C156.143 8.61719 156.24 8.68066 156.299 8.75879C156.357 8.83691 156.387 8.9248 156.387 9.02246V11.9375H159.229C159.326 11.9375 159.409 11.9619 159.478 12.0107C159.556 12.0596 159.619 12.1426 159.668 12.2598C159.717 12.3672 159.751 12.5186 159.771 12.7139C159.8 12.9092 159.814 13.1484 159.814 13.4316C159.814 13.9688 159.766 14.3545 159.668 14.5889C159.57 14.8135 159.429 14.9258 159.243 14.9258H156.387V21.0635C156.387 21.7764 156.499 22.3135 156.724 22.6748C156.948 23.0264 157.349 23.2021 157.925 23.2021C158.12 23.2021 158.296 23.1875 158.452 23.1582C158.608 23.1191 158.745 23.0801 158.862 23.041C158.989 22.9922 159.092 22.9531 159.17 22.9238C159.258 22.8848 159.336 22.8652 159.404 22.8652C159.463 22.8652 159.517 22.8848 159.565 22.9238C159.624 22.9531 159.668 23.0215 159.697 23.1289C159.727 23.2266 159.751 23.3633 159.771 23.5391C159.8 23.7148 159.814 23.9395 159.814 24.2129ZM183.267 25.502C183.267 25.5996 183.237 25.6875 183.179 25.7656C183.12 25.834 183.022 25.8926 182.886 25.9414C182.749 25.9902 182.563 26.0244 182.329 26.0439C182.095 26.0732 181.797 26.0879 181.436 26.0879C181.064 26.0879 180.762 26.0732 180.527 26.0439C180.293 26.0244 180.103 25.9902 179.956 25.9414C179.819 25.8926 179.722 25.834 179.663 25.7656C179.614 25.6875 179.59 25.5996 179.59 25.502V17.7529C179.59 17.3135 179.546 16.9131 179.458 16.5518C179.38 16.1904 179.253 15.8828 179.077 15.6289C178.911 15.3652 178.696 15.165 178.433 15.0283C178.179 14.8818 177.871 14.8086 177.51 14.8086C177.07 14.8086 176.626 14.9795 176.177 15.3213C175.728 15.6631 175.239 16.1611 174.712 16.8154V25.502C174.712 25.5996 174.683 25.6875 174.624 25.7656C174.565 25.834 174.463 25.8926 174.316 25.9414C174.18 25.9902 173.994 26.0244 173.76 26.0439C173.525 26.0732 173.232 26.0879 172.881 26.0879C172.52 26.0879 172.222 26.0732 171.987 26.0439C171.753 26.0244 171.562 25.9902 171.416 25.9414C171.279 25.8926 171.182 25.834 171.123 25.7656C171.064 25.6875 171.035 25.5996 171.035 25.502V17.7529C171.035 17.3135 170.991 16.9131 170.903 16.5518C170.825 16.1904 170.703 15.8828 170.537 15.6289C170.371 15.3652 170.156 15.165 169.893 15.0283C169.629 14.8818 169.321 14.8086 168.97 14.8086C168.521 14.8086 168.071 14.9795 167.622 15.3213C167.173 15.6631 166.689 16.1611 166.172 16.8154V25.502C166.172 25.5996 166.143 25.6875 166.084 25.7656C166.025 25.834 165.923 25.8926 165.776 25.9414C165.64 25.9902 165.454 26.0244 165.22 26.0439C164.985 26.0732 164.688 26.0879 164.326 26.0879C163.965 26.0879 163.667 26.0732 163.433 26.0439C163.198 26.0244 163.008 25.9902 162.861 25.9414C162.725 25.8926 162.627 25.834 162.568 25.7656C162.51 25.6875 162.48 25.5996 162.48 25.502V12.4355C162.48 12.3379 162.505 12.2549 162.554 12.1865C162.603 12.1084 162.69 12.0449 162.817 11.9961C162.944 11.9473 163.105 11.9131 163.301 11.8936C163.506 11.8643 163.76 11.8496 164.062 11.8496C164.375 11.8496 164.634 11.8643 164.839 11.8936C165.044 11.9131 165.2 11.9473 165.308 11.9961C165.425 12.0449 165.508 12.1084 165.557 12.1865C165.605 12.2549 165.63 12.3379 165.63 12.4355V13.9443C166.353 13.1631 167.07 12.5771 167.783 12.1865C168.506 11.7959 169.258 11.6006 170.039 11.6006C170.576 11.6006 171.06 11.6592 171.489 11.7764C171.919 11.8838 172.3 12.0449 172.632 12.2598C172.974 12.4648 173.267 12.7139 173.511 13.0068C173.755 13.2998 173.96 13.627 174.126 13.9883C174.517 13.5684 174.897 13.207 175.269 12.9043C175.649 12.6016 176.021 12.3574 176.382 12.1719C176.753 11.9766 177.119 11.835 177.48 11.7471C177.852 11.6494 178.228 11.6006 178.608 11.6006C179.478 11.6006 180.21 11.7471 180.806 12.04C181.401 12.333 181.88 12.7334 182.241 13.2412C182.612 13.7393 182.876 14.3252 183.032 14.999C183.188 15.6729 183.267 16.3857 183.267 17.1377V25.502ZM198.018 25.5459C198.018 25.6826 197.969 25.79 197.871 25.8682C197.773 25.9463 197.617 26 197.402 26.0293C197.197 26.0684 196.89 26.0879 196.479 26.0879C196.04 26.0879 195.718 26.0684 195.513 26.0293C195.317 26 195.176 25.9463 195.088 25.8682C195.01 25.79 194.971 25.6826 194.971 25.5459V24.5059C194.434 25.082 193.818 25.5312 193.125 25.8535C192.441 26.1758 191.68 26.3369 190.84 26.3369C190.146 26.3369 189.507 26.2441 188.921 26.0586C188.345 25.8828 187.842 25.6191 187.412 25.2676C186.992 24.9062 186.665 24.4619 186.431 23.9346C186.196 23.4072 186.079 22.792 186.079 22.0889C186.079 21.3271 186.226 20.668 186.519 20.1113C186.821 19.5449 187.266 19.0811 187.852 18.7197C188.447 18.3486 189.185 18.0752 190.063 17.8994C190.942 17.7236 191.963 17.6357 193.125 17.6357H194.399V16.8447C194.399 16.4346 194.355 16.0781 194.268 15.7754C194.189 15.4629 194.053 15.2041 193.857 14.999C193.672 14.7939 193.418 14.6426 193.096 14.5449C192.783 14.4473 192.393 14.3984 191.924 14.3984C191.309 14.3984 190.757 14.4668 190.269 14.6035C189.79 14.7402 189.365 14.8916 188.994 15.0576C188.623 15.2236 188.311 15.375 188.057 15.5117C187.812 15.6484 187.612 15.7168 187.456 15.7168C187.349 15.7168 187.251 15.6826 187.163 15.6143C187.085 15.5459 187.017 15.4482 186.958 15.3213C186.909 15.1943 186.87 15.0381 186.841 14.8525C186.812 14.667 186.797 14.4619 186.797 14.2373C186.797 13.9346 186.821 13.6953 186.87 13.5195C186.919 13.3438 187.012 13.1875 187.148 13.0508C187.285 12.9043 187.524 12.748 187.866 12.582C188.208 12.4062 188.608 12.2451 189.067 12.0986C189.526 11.9521 190.024 11.835 190.562 11.7471C191.108 11.6494 191.67 11.6006 192.246 11.6006C193.271 11.6006 194.146 11.7031 194.868 11.9082C195.601 12.1035 196.201 12.4111 196.67 12.8311C197.139 13.2412 197.48 13.7734 197.695 14.4277C197.91 15.082 198.018 15.8584 198.018 16.7568V25.5459ZM194.399 19.9502H192.993C192.397 19.9502 191.89 19.9941 191.47 20.082C191.05 20.1699 190.708 20.3018 190.444 20.4775C190.181 20.6533 189.985 20.8682 189.858 21.1221C189.741 21.3662 189.683 21.6494 189.683 21.9717C189.683 22.5186 189.854 22.9482 190.195 23.2607C190.547 23.5732 191.03 23.7295 191.646 23.7295C192.163 23.7295 192.637 23.5977 193.066 23.334C193.506 23.0703 193.95 22.6846 194.399 22.1768V19.9502ZM214.189 25.502C214.189 25.5996 214.16 25.6875 214.102 25.7656C214.043 25.834 213.945 25.8926 213.809 25.9414C213.672 25.9902 213.481 26.0244 213.237 26.0439C213.003 26.0732 212.71 26.0879 212.358 26.0879C211.997 26.0879 211.694 26.0732 211.45 26.0439C211.216 26.0244 211.03 25.9902 210.894 25.9414C210.757 25.8926 210.659 25.834 210.601 25.7656C210.542 25.6875 210.513 25.5996 210.513 25.502V18.0459C210.513 17.4111 210.464 16.9131 210.366 16.5518C210.278 16.1904 210.146 15.8828 209.971 15.6289C209.795 15.3652 209.565 15.165 209.282 15.0283C209.009 14.8818 208.687 14.8086 208.315 14.8086C207.847 14.8086 207.373 14.9795 206.895 15.3213C206.416 15.6631 205.918 16.1611 205.4 16.8154V25.502C205.4 25.5996 205.371 25.6875 205.312 25.7656C205.254 25.834 205.151 25.8926 205.005 25.9414C204.868 25.9902 204.683 26.0244 204.448 26.0439C204.214 26.0732 203.916 26.0879 203.555 26.0879C203.193 26.0879 202.896 26.0732 202.661 26.0439C202.427 26.0244 202.236 25.9902 202.09 25.9414C201.953 25.8926 201.855 25.834 201.797 25.7656C201.738 25.6875 201.709 25.5996 201.709 25.502V12.4355C201.709 12.3379 201.733 12.2549 201.782 12.1865C201.831 12.1084 201.919 12.0449 202.046 11.9961C202.173 11.9473 202.334 11.9131 202.529 11.8936C202.734 11.8643 202.988 11.8496 203.291 11.8496C203.604 11.8496 203.862 11.8643 204.067 11.8936C204.272 11.9131 204.429 11.9473 204.536 11.9961C204.653 12.0449 204.736 12.1084 204.785 12.1865C204.834 12.2549 204.858 12.3379 204.858 12.4355V13.9443C205.581 13.1631 206.313 12.5771 207.056 12.1865C207.808 11.7959 208.589 11.6006 209.399 11.6006C210.288 11.6006 211.035 11.7471 211.641 12.04C212.256 12.333 212.749 12.7334 213.12 13.2412C213.501 13.7393 213.774 14.3252 213.94 14.999C214.106 15.6729 214.189 16.4834 214.189 17.4307V25.502Z" fill="black"/>
<path d="M109.5 11L111.184 16.1824H116.633L112.225 19.3853L113.908 24.5676L109.5 21.3647L105.092 24.5676L106.775 19.3853L102.367 16.1824H107.816L109.5 11Z" fill="#066DCA"/>
</svg>
